<?xml version="1.0" encoding="UTF-8" standalone="no"?>
<!-- Created with Inkscape (http://www.inkscape.org/) -->

<svg
   xmlns:dc="http://purl.org/dc/elements/1.1/"
   xmlns:cc="http://creativecommons.org/ns#"
   xmlns:rdf="http://www.w3.org/1999/02/22-rdf-syntax-ns#"
   xmlns:svg="http://www.w3.org/2000/svg"
   xmlns="http://www.w3.org/2000/svg"
   xmlns:sodipodi="http://sodipodi.sourceforge.net/DTD/sodipodi-0.dtd"
   xmlns:inkscape="http://www.inkscape.org/namespaces/inkscape"
   id="svg4370"
   version="1.1"
   inkscape:version="0.91 r13725"
   width="544.6875"
   height="239.0625"
   viewBox="0 0 544.6875 239.0625"
   sodipodi:docname="DianaName.svg">
  <metadata
     id="metadata4376">
    <rdf:RDF>
      <cc:Work
         rdf:about="">
        <dc:format>image/svg+xml</dc:format>
        <dc:type
           rdf:resource="http://purl.org/dc/dcmitype/StillImage" />
        <dc:title></dc:title>
      </cc:Work>
    </rdf:RDF>
  </metadata>
  <defs
     id="defs4374" />
  <sodipodi:namedview
     pagecolor="#ffffff"
     bordercolor="#666666"
     borderopacity="1"
     objecttolerance="10"
     gridtolerance="10"
     guidetolerance="10"
     inkscape:pageopacity="0"
     inkscape:pageshadow="2"
     inkscape:window-width="1280"
     inkscape:window-height="751"
     id="namedview4372"
     showgrid="false"
     inkscape:zoom="1.6357169"
     inkscape:cx="119.68553"
     inkscape:cy="380.13649"
     inkscape:window-x="0"
     inkscape:window-y="0"
     inkscape:window-maximized="1"
     inkscape:current-layer="layer3" />
  <g
     inkscape:groupmode="layer"
     id="layer1"
     inkscape:label="Layer 1"
     style="display:inline" />
  <g
     inkscape:groupmode="layer"
     id="layer2"
     inkscape:label="Layer 2"
     style="display:inline" />
  <g
     inkscape:groupmode="layer"
     id="layer3"
     inkscape:label="Layer 3"
     style="display:inline">
    <path
       style="fill:#ff0000;fill-rule:evenodd;stroke:#000000;stroke-width:1px;stroke-linecap:butt;stroke-linejoin:miter;stroke-opacity:1"
       d="M -72.482422 -257.77539 C -86.622282 -257.70951 -107.9043 -255.52148 -107.9043 -255.52148 L -108.20898 -234.42969 L -95.371094 -234.125 C -95.371094 -234.125 -93.58638 -207.42901 -93.230469 -194.38672 C -92.874557 -181.34443 -92.824541 -167.86169 -93.230469 -155.87109 C -93.636397 -143.88049 -96.287109 -122.55273 -96.287109 -122.55273 L -109.12695 -125.91602 L -115.24023 -105.74023 L -97.205078 -101.46094 C -97.205078 -101.46094 -78.200452 -99.245259 -69.388672 -100.23828 C -60.576892 -101.2313 -52.354076 -103.51174 -44.933594 -106.96289 C -37.513112 -110.41404 -31.480684 -114.79217 -25.371094 -120.41211 C -19.261504 -126.03205 -13.553195 -132.48737 -8.8652344 -140.58789 C -4.1772745 -148.68841 -0.22812279 -158.29018 1.8339844 -168.70898 C 3.8960916 -179.12778 4.3071501 -191.84826 2.7519531 -202.33398 C 1.1967561 -212.8197 -1.2267508 -222.27217 -6.7246094 -230.76172 C -12.222468 -239.25127 -19.029665 -246.53785 -29.345703 -251.54883 C -39.661741 -256.55981 -53.77819 -256.9439 -66.943359 -257.66211 C -68.589005 -257.75189 -70.462442 -257.7848 -72.482422 -257.77539 z M -74.353516 -238.61914 C -74.353516 -238.61914 -56.086924 -238.34544 -48.849609 -236.89062 C -41.612294 -235.43581 -35.793298 -234.51029 -31.125 -230.83789 C -26.456702 -227.16549 -24.528502 -222.22522 -22.046875 -216.57227 C -19.565248 -210.91932 -17.862168 -203.6434 -16.859375 -197.11914 C -15.856582 -190.59488 -15.142466 -184.25204 -15.994141 -177.66602 C -16.845816 -171.08 -19.204774 -163.87499 -22.046875 -158.21289 C -24.888976 -152.55079 -28.05197 -148.77524 -32.421875 -143.94727 C -36.79178 -139.1193 -42.768433 -133.34623 -48.416016 -129.68164 C -54.063599 -126.01705 -61.133261 -123.21215 -65.708984 -121.90039 C -70.284707 -120.58863 -75.21875 -120.60352 -75.21875 -120.60352 C -75.21875 -120.60352 -74.037243 -127.08782 -73.490234 -138.32812 C -72.943225 -149.56843 -73.347373 -171.32512 -73.490234 -188.04102 C -73.633095 -204.75692 -74.353516 -238.61914 -74.353516 -238.61914 z "
       id="path4920" />
    <path
       style="fill:#ff0000;fill-rule:evenodd;stroke:#000000;stroke-width:1px;stroke-linecap:butt;stroke-linejoin:miter;stroke-opacity:1"
       d="m 23.459184,-214.25556 c 4.162638,-0.02 8.982338,-1.84416 12.227055,-4.89082 3.244717,-3.04666 5.385267,-7.61764 5.807851,-12.22705 0.422584,-4.60941 -1.188118,-10.26684 -3.668117,-13.75544 -2.479999,-3.4886 -5.332689,-5.53724 -9.475967,-6.4192 -4.143278,-0.88196 -9.981691,0.0115 -13.755437,2.44541 -3.773746,2.43395 -6.1278223,6.46162 -7.3362333,10.69867 -1.208411,4.23705 -0.551365,10.08636 0.611353,13.44976 1.162718,3.3634 1.993343,4.40471 4.5851463,6.41921 2.591803,2.0145 6.841711,4.29947 11.004349,4.27946 z"
       id="path4922"
       inkscape:connector-curvature="0"
       sodipodi:nodetypes="zzzzzzzzzz" />
    <path
       style="fill:#ff0000;fill-rule:evenodd;stroke:#000000;stroke-width:1px;stroke-linecap:butt;stroke-linejoin:miter;stroke-opacity:1"
       d="m 104.96745,-211.5293 c -0.68544,-0.0206 -1.36575,-0.0131 -2.0332,0.0254 -5.339623,0.30819 -10.516923,2.56587 -15.283203,5.19532 -4.766294,2.62945 -9.863248,6.97094 -12.837896,10.39453 -2.974648,3.42359 -4.226528,5.2368 -5.501953,9.16992 -1.275425,3.93312 -1.222656,14.06055 -1.222656,14.06055 l 21.396485,-2.14063 c 0,0 -1.07658,-3.86667 -0.91602,-5.80664 0.16056,-1.93997 0.73607,-3.60291 1.83399,-5.50195 1.09792,-1.89904 2.65154,-4.22864 4.89062,-5.50196 2.23908,-1.27332 5.388793,-1.61269 7.947273,-1.52929 2.55848,0.0834 5.03329,0.48033 7.03125,1.83398 1.99796,1.35365 3.80323,3.27887 4.2793,5.8086 0.47607,2.52973 -0.45268,5.57439 -2.14063,7.94726 -1.68795,2.37287 -2.60358,2.60532 -7.64258,5.19727 -5.039003,2.59195 -16.983723,5.28602 -23.230469,8.55859 -6.246745,3.27257 -10.811979,5.70539 -14.367188,10.08594 -3.555209,4.38055 -5.925589,10.79218 -6.417968,14.97851 -0.492381,4.18633 1.527343,8.86524 1.527343,8.86524 l -0.611328,0 -1.222656,-0.61133 -17.728516,-0.91797 -1.529297,-75.80664 -40.96093735,-0.61133 0,18.64649 22.00976535,0.30468 0.611329,60.21875 -17.7304693,2.13868 0.30664,18.95312 61.1347663,-3.66797 -0.611328,-10.08789 c 0,0 1.554052,2.10705 3.056641,3.66797 1.502589,1.56092 4.196887,4.09801 6.113281,5.50195 1.916394,1.40394 3.362762,2.08508 5.197266,3.05664 1.834503,0.97156 3.415741,1.89561 5.808593,2.75196 2.392849,0.85635 5.835119,1.80339 8.558589,2.13867 2.72348,0.33528 5.2834,0.27675 7.640633,0 2.35723,-0.27675 4.3157,-0.76235 6.41992,-1.52734 2.10422,-0.76499 3.98163,-1.59974 6.11328,-3.05665 2.13165,-1.45691 6.41993,-5.80859 6.41993,-5.80859 0,0 2.8627,3.22813 4.89062,4.89063 2.02792,1.6625 4.17412,3.9333 7.33594,4.89062 3.16182,0.95732 7.71771,1.19706 11.0039,0 3.28619,-1.19706 5.48354,-3.68095 7.64258,-6.41797 2.15904,-2.73702 3.71551,-5.56376 4.89063,-9.78125 1.17511,-4.21749 1.22265,-15.28515 1.22265,-15.28515 l -16.50586,0.61132 -2.14062,13.45118 -0.91602,-1.5293 c 0,0 -1.38645,-0.13062 -2.44531,-1.5293 -1.05886,-1.39868 -1.02572,0.89384 -2.14062,-7.33593 -1.1149,-8.22977 1.96936,-28.21936 1.52929,-37.59766 -0.44007,-9.3783 -1.23136,-14.26595 -2.44531,-18.64649 -1.21395,-4.38054 -2.94834,-8.65767 -5.50391,-11.92187 -2.55557,-3.2642 -5.00131,-5.35515 -9.16992,-7.33594 -3.64753,-1.73319 -8.75852,-3.24265 -13.55664,-3.38672 z m 10.45508,53.74805 c 0,0 0.0777,11.76465 -0.64844,16.21094 -0.72615,4.44629 -1.68117,7.83359 -3.02734,10.375 -1.34617,2.54141 -1.76867,3.66991 -4.10547,4.9707 -2.3368,1.30079 -6.45222,1.54674 -9.511723,1.29688 -3.0595,-0.24986 -5.91872,-1.33206 -8.42969,-2.59375 -2.51097,-1.26169 -5.281197,-2.64694 -6.484372,-4.75391 -1.203175,-2.10697 -1.562537,-4.19467 -0.648437,-6.48438 0.9141,-2.28971 3.211784,-3.22997 6.269529,-5.40429 3.05775,-2.17432 7.88935,-4.85011 12.320313,-7.13282 4.43096,-2.28271 14.26563,-6.48437 14.26563,-6.48437 z"
       id="path4924"
       inkscape:connector-curvature="0" />
    <path
       style="fill:#ff0000;fill-rule:evenodd;stroke:#000000;stroke-width:1px;stroke-linecap:butt;stroke-linejoin:miter;stroke-opacity:1"
       d="m 147.68668,-212.4215 c 0,0 17.66014,0.66868 24.14843,0 6.48829,-0.66868 14.67247,-3.05676 14.67247,-3.05676 l 1.52838,16.20085 c 0,0 4.21864,-6.53753 7.03056,-9.47597 2.81192,-2.93844 5.79117,-6.16535 9.78164,-7.94759 3.99047,-1.78224 9.07524,-2.59943 13.44976,-2.13973 4.37452,0.4597 8.54795,2.08717 11.92138,4.58514 3.37343,2.49797 5.54891,5.97864 7.64191,9.78165 2.093,3.80301 3.54392,7.91662 4.58515,12.83841 1.04123,4.92179 1.27471,5.82366 1.2227,16.50652 -0.052,10.68286 -3.97379,47.37984 -3.97379,47.37984 l 18.34058,0.61135 -3.66812,19.86896 -35.76413,0.91703 c 0,0 3.69707,-27.2937 4.58514,-37.59819 0.88807,-10.30449 1.14331,-16.65313 1.22271,-24.14843 0.0794,-7.4953 0.74792,-16.26167 -0.61135,-20.786 -1.35927,-4.52433 -2.18729,-4.85335 -3.9738,-6.4192 -1.78651,-1.56585 -3.51941,-2.56327 -6.11352,-2.75109 -2.59411,-0.18782 -5.69389,0.83582 -8.55894,2.44541 -2.86505,1.60959 -5.77311,4.96258 -7.94759,7.33624 -2.17448,2.37366 -3.58866,4.12481 -5.19649,6.72488 -1.60783,2.60007 -4.27947,8.86461 -4.27947,8.86461 l 0,13.14408 1.52838,32.09602 17.11787,4.58515 -4.89082,18.64626 c 0,0 -6.25017,-2.32185 -11.6157,-3.05677 -5.36553,-0.73492 -14.16282,-0.14771 -20.48032,-0.30567 -6.3175,-0.15796 -17.42355,-0.61136 -17.42355,-0.61136 l 0,-18.95193 17.11788,0 -0.30568,-66.63745 -22.31437,0.30568 z"
       id="path4926"
       inkscape:connector-curvature="0"
       sodipodi:nodetypes="czcczzzzzzzcccczzzzzzzzccccczzcccccc" />
    <path
       style="fill:#ff0000;fill-rule:evenodd;stroke:#000000;stroke-width:1px;stroke-linecap:butt;stroke-linejoin:miter;stroke-opacity:1"
       d="m 294.36379,-211.4043 c -3.32295,-0.0303 -6.48953,0.48568 -10.34961,1.73438 -5.14678,1.66493 -12.002,5.37308 -16.20117,9.16992 -4.19917,3.79684 -7.09725,7.83716 -8.86328,12.5332 -1.76603,4.69604 -1.5293,14.67188 -1.5293,14.67188 l 21.0918,-1.22266 c 0,0 -0.38159,-6.6852 0.30664,-9.16992 0.68823,-2.48472 1.48926,-3.94123 3.05664,-5.50195 1.56738,-1.56072 3.59335,-2.76375 6.11328,-3.36328 2.51993,-0.59953 5.93919,-0.45994 8.55859,0.30664 2.6194,0.76658 5.37645,1.42261 6.72461,3.97265 1.34816,2.55004 0.67651,6.81871 -0.61133,9.47656 -1.28784,2.65787 -2.4346,3.1964 -6.11328,5.50196 -3.67868,2.30556 -11.05377,4.58572 -16.50586,6.72461 -5.45209,2.13889 -11.81175,3.13929 -16.20117,6.11328 -4.38942,2.97399 -7.52883,6.27582 -9.78125,10.69922 -2.25242,4.4234 -3.4705,10.0449 -3.05664,14.97851 0.41386,4.93361 2.87668,9.81277 5.19531,13.44922 2.31863,3.63645 5.23857,6.13526 7.94727,8.25391 2.7087,2.11865 4.89384,3.08278 7.94727,4.58398 3.05341,1.5012 6.70771,3.54995 10.39453,4.2793 3.68682,0.72935 7.46201,0.75006 11.30859,0 3.84658,-0.75006 8.56167,-2.49846 11.31055,-4.58399 2.74888,-2.08551 5.19726,-6.7246 5.19726,-6.7246 0,0 1.89749,3.48875 3.66797,5.19531 1.77048,1.70656 3.99331,3.40306 7.0293,4.58594 3.03599,1.18288 7.46708,2.69689 11.00586,1.83398 3.53878,-0.86291 6.00196,-3.29287 8.55859,-6.41992 2.55663,-3.12705 4.66945,-7.87015 5.80859,-12.22656 1.13915,-4.35641 0.91602,-13.44922 0.91602,-13.44922 l -16.50586,0.91601 -2.44531,12.83985 c 0,0 -2.30042,-0.71662 -3.36328,-2.14063 -1.06286,-1.42401 -1.05057,-0.15731 -1.83399,-6.41992 -0.78342,-6.26261 0.85967,-22.71825 0.91797,-31.17774 0.0583,-8.45949 0.63697,-13.60599 -0.30664,-19.56445 -0.94361,-5.95846 -2.67912,-11.71443 -4.89062,-15.89453 -2.2115,-4.1801 -3.74816,-6.66821 -7.33594,-9.16992 -3.58778,-2.50171 -9.05888,-4.08834 -13.75586,-4.58594 -1.17425,-0.1244 -2.2986,-0.19496 -3.40625,-0.20508 z m 10.19141,53.40625 c 0,0 -0.29286,13.8345 -1.08008,18.37305 -0.78722,4.53855 -1.19883,6.5665 -2.59375,8.86133 -1.39492,2.29483 -2.83841,3.67561 -4.97071,4.75586 -2.1323,1.08025 -4.55894,1.3477 -7.34961,1.29687 -2.79066,-0.0508 -6.64394,-0.82753 -9.07812,-1.94531 -2.43418,-1.11778 -4.07734,-2.37595 -5.4043,-4.10742 -1.32696,-1.73147 -2.75698,-3.11858 -2.37695,-5.83594 0.38003,-2.71736 3.62556,-5.7771 6.26758,-7.99609 2.64202,-2.21899 6.19683,-3.31554 9.29492,-4.97266 3.09809,-1.65712 6.40499,-3.57593 9.29492,-4.9707 2.88993,-1.39477 7.9961,-3.45899 7.9961,-3.45899 z"
       id="path4928"
       inkscape:connector-curvature="0" />
  </g>
</svg>
